<?xml version="1.0" encoding="UTF-8"?>
<svg xmlns="http://www.w3.org/2000/svg" viewBox="0 0 60.14 60">
  <defs>
    <style>
      .cls-1 {
        fill: none;
      }

      .cls-1, .cls-2 {
        stroke: #231f20;
        stroke-miterlimit: 10;
      }

      .cls-3 {
        fill: #f0e4c5;
      }

      .cls-3, .cls-4 {
        stroke-width: 0px;
      }

      .cls-4 {
        fill: #fbfadd;
      }

      .cls-2 {
        fill: #fee4d5;
      }
    </style>
  </defs>
  <g id="Layer_3" data-name="Layer 3">
    <path class="cls-2" d="m12.56,35.47c-.42.87.63,3.33,1.97,6.39,1.15,2.62,2.08,6.15,2.9,8.42,1.52,4.17,1.61,3.56,2.74,5,2.05,2.6,5.5,2.69,6.74,2.94.59.12,3.55.66,7.06-.58,1.67-.59,5.03-1.78,6.48-4.74,1.84-3.74,1.54-4.97,1.89-10.06.12-1.83.3-3.47-.05-5.42-.06-.33-.29-1.83-1.45-2.71-1.33-1-3.83-2.13-6.1-1.84-1.85.24-.32.01-8.61-.05-3.19-.02-4.81.72-7.45,1.09-4.03.56-5.84.98-6.13,1.57Z"/>
  </g>
  <g id="hair">
    <path class="cls-4" d="m13.47,36.34c1.15,3.54.37,1.82,2.03,5.32,1.39,2.94,2.23,5.36,2.71,7.55.38,1.73,1.02,4.64.1,5.13-.98.52-2.33-2.45-5.81-3.19-2.46-.53-3.24.66-5.03-.19-2.19-1.04-2.99-3.73-3.29-4.74-.65-2.2-.02-2.8-.48-5.23-.58-3.03-1.8-3.26-2.52-5.71-1-3.41-.02-7.64,2.13-10.35,2.13-2.7,4.09-2.23,6.29-5.52,1.23-1.84,1.25-2.92,1.94-4.55,2.57-6.1,9.85-8.66,10.84-9,6.11-2.07,12.96-.91,17.81,2.71,1.33,1,4.76,3.56,6.1,7.84.56,1.79.31,2.43,1.06,4.06,1.74,3.74,4.36,3.1,6.19,6,2.58,4.08,2.28,7.06,1.35,14.32-.12.95.74,1.73.87,3.1.06.61.5,5.17-2.71,7.35-1.75,1.19-2.78-.18-5.23.87-2.86,1.24-3.24,3.75-4.55,3.58-1.46-.19-2.65-3.52-2.71-6.58-.1-5.17,1.68-6.85,2.03-11.52.08-1.04-.72-1.51-1.74-2.42-2.22-1.97-6.14-1.62-12.56-1.45-4.37.11-4.18.17-9.31.68-4.12.41-5.79,1.09-5.52,1.94Z"/>
  </g>
  <g id="shadows">
    <path class="cls-3" d="m15.5,41.66c1.39,2.94,2.23,5.36,2.71,7.55.38,1.73,1.02,4.64.1,5.13-.98.52-2.33-2.45-5.81-3.19-2.46-.53-3.24.66-5.03-.19"/>
    <path class="cls-3" d="m46.27,16.4c.56,1.79.31,2.43,1.06,4.06,1.74,3.74,4.36,3.1,6.19,6,2.58,4.08,2.28,7.06,1.35,14.32-.12.95.74,1.73.87,3.1.06.61.5,5.17-2.71,7.35-1.75,1.19-2.78-.18-5.23.87-2.86,1.24-3.24,3.75-4.55,3.58-1.46-.19-2.65-3.52-2.71-6.58-.1-5.17,1.68-6.85,2.03-11.52.08-1.04-.72-1.51-1.74-2.42-2.22-1.97-6.14-1.62-12.56-1.45"/>
  </g>
  <g id="Layer_5" data-name="Layer 5">
    <path class="cls-1" d="m13.18,36.79c1.15,3.54.37,1.82,2.03,5.32,1.39,2.94,2.23,5.36,2.71,7.55.38,1.73,1.02,4.64.1,5.13-.98.52-2.33-2.45-5.81-3.19-2.46-.53-3.24.66-5.03-.19-2.19-1.04-2.99-3.73-3.29-4.74-.65-2.2-.02-2.8-.48-5.23-.58-3.03-1.8-3.26-2.52-5.71-1-3.41-.02-7.64,2.13-10.35,2.13-2.7,4.09-2.23,6.29-5.52,1.23-1.84,1.25-2.92,1.94-4.55,2.57-6.1,9.85-8.66,10.84-9,6.11-2.07,12.96-.91,17.81,2.71,1.33,1,4.76,3.56,6.1,7.84.56,1.79.31,2.43,1.06,4.06,1.74,3.74,4.36,3.1,6.19,6,2.58,4.08,2.28,7.06,1.35,14.32-.12.95.74,1.73.87,3.1.06.61.5,5.17-2.71,7.35-1.75,1.19-2.78-.18-5.23.87-2.86,1.24-3.24,3.75-4.55,3.58-1.46-.19-2.65-3.52-2.71-6.58-.1-5.17,1.68-6.85,2.03-11.52.08-1.04-.72-1.51-1.74-2.42-2.22-1.97-6.14-1.62-12.56-1.45-4.37.11-4.18.17-9.31.68-4.12.41-5.79,1.09-5.52,1.94Z"/>
  </g>
</svg>